<?xml version="1.0" encoding="utf-8"?>
<!-- Generator: Adobe Illustrator 13.0.0, SVG Export Plug-In . SVG Version: 6.00 Build 14948)  -->
<!DOCTYPE svg PUBLIC "-//W3C//DTD SVG 1.1//EN" "http://www.w3.org/Graphics/SVG/1.1/DTD/svg11.dtd">
<svg version="1.1" xmlns="http://www.w3.org/2000/svg" xmlns:xlink="http://www.w3.org/1999/xlink" x="0px" y="0px"
	 width="862.957px" height="1001.951px" viewBox="0 0 862.957 1001.951" enable-background="new 0 0 862.957 1001.951"
	 xml:space="preserve">
<g id="Layer_1" display="none">
	<g id="XMLID_1_" display="inline">
		<g>
			<path fill="#151515" d="M429.476,12.753c270.62,0,490,219.38,490,490c0,270.61-219.38,489.99-490,489.99
				c-270.62,0-490-219.38-490-489.99C-60.524,232.133,158.856,12.753,429.476,12.753z"/>
		</g>
		<g>
			<path fill="none" stroke="#000000" d="M919.476,502.753c0-270.62-219.38-490-490-490c-270.62,0-490,219.38-490,490
				c0,270.61,219.38,489.99,490,489.99C700.096,992.744,919.476,773.364,919.476,502.753z"/>
		</g>
	</g>
</g>
<g id="Layer_4">
	<polygon fill="#FFC32E" points="862.127,748.864 432.357,996.991 2.587,748.864 2.587,252.609 432.357,4.481 862.127,252.609 	"/>
	<g>
	</g>
	<g>
	</g>
</g>
<g id="Layer_4_copy">
	<polygon fill="#FFFFFF" points="840.127,736.61 432.357,972.036 24.587,736.61 24.587,265.758 432.357,30.332 840.127,265.758 	"/>
	<g>
	</g>
	<g>
	</g>
</g>
<g id="Layer_6">
	<g>
		<path d="M257.067,610.101v-1.953c-4.569,3.906-9.536,6.901-14.897,8.984c-5.362,2.084-11.09,3.125-17.182,3.125
			c-14.136,0-26.2-5.338-36.192-16.016c-9.993-10.677-14.988-23.567-14.988-38.672c0-15.104,4.995-27.994,14.988-38.672
			c9.992-10.677,22.056-16.016,36.192-16.016c14.013,0,26.077,5.339,36.192,16.016c9.992,10.678,14.989,23.568,14.989,38.672v44.531
			c0,2.8-0.93,5.192-2.788,7.178c-1.859,1.986-4.099,2.979-6.717,2.979c-2.682,0-4.951-0.992-6.809-2.979
			C257.996,615.293,257.067,612.901,257.067,610.101z M224.988,531.292c-4.51,0-8.714,0.912-12.612,2.734
			c-3.9,1.823-7.281,4.281-10.145,7.373c-2.865,3.093-5.134,6.723-6.809,10.889c-1.677,4.167-2.514,8.594-2.514,13.281
			s0.837,9.115,2.514,13.281c1.675,4.167,3.944,7.797,6.809,10.889c2.863,3.093,6.245,5.551,10.145,7.373
			c3.898,1.823,8.103,2.734,12.612,2.734c4.447,0,8.621-0.911,12.521-2.734c3.898-1.822,7.296-4.297,10.19-7.422
			c2.893-3.125,5.178-6.754,6.854-10.889c1.675-4.134,2.513-8.545,2.513-13.232s-0.838-9.098-2.513-13.232
			c-1.676-4.134-3.961-7.764-6.854-10.889c-2.895-3.125-6.292-5.599-10.19-7.422C233.609,532.205,229.436,531.292,224.988,531.292z"
			/>
		<path d="M309.893,522.992c9.078-8.072,19.771-12.109,32.079-12.109c14.013,0,26.077,5.339,36.192,16.016
			c4.995,5.273,8.743,11.149,11.242,17.627c2.498,6.479,3.747,13.493,3.747,21.045c0,15.234-4.997,28.125-14.989,38.672
			c-10.115,10.678-22.179,16.016-36.192,16.016c-14.136,0-26.2-5.338-36.192-16.016c-9.993-10.677-14.988-23.567-14.988-38.672
			v-91.406c0-2.93,0.898-5.354,2.696-7.275c1.796-1.92,4.067-2.881,6.809-2.881c2.68,0,4.95,0.961,6.809,2.881
			c1.858,1.921,2.788,4.346,2.788,7.275V522.992z M341.972,599.847c4.447,0,8.621-0.911,12.521-2.734
			c3.898-1.822,7.296-4.297,10.19-7.422c2.893-3.125,5.178-6.754,6.854-10.889c1.675-4.134,2.513-8.545,2.513-13.232
			s-0.838-9.098-2.513-13.232c-1.676-4.134-3.961-7.764-6.854-10.889c-2.895-3.125-6.292-5.599-10.19-7.422
			c-3.9-1.822-8.074-2.734-12.521-2.734c-4.51,0-8.714,0.912-12.612,2.734c-3.9,1.823-7.281,4.281-10.145,7.373
			c-2.865,3.093-5.134,6.723-6.809,10.889c-1.677,4.167-2.514,8.594-2.514,13.281s0.837,9.115,2.514,13.281
			c1.675,4.167,3.944,7.797,6.809,10.889c2.863,3.093,6.245,5.551,10.145,7.373C333.258,598.936,337.462,599.847,341.972,599.847z"
			/>
		<path d="M510.136,565.57c0,15.234-4.997,28.125-14.988,38.672c-10.115,10.678-22.18,16.016-36.192,16.016
			c-14.136,0-26.2-5.338-36.192-16.016c-9.993-10.677-14.988-23.567-14.988-38.672c0-15.104,4.995-27.994,14.988-38.672
			c9.992-10.677,22.056-16.016,36.192-16.016c14.013,0,26.077,5.339,36.192,16.016c4.995,5.339,8.728,11.23,11.195,17.676
			S510.075,558.018,510.136,565.57z M458.956,531.292c-4.51,0-8.714,0.912-12.612,2.734c-3.9,1.823-7.281,4.281-10.145,7.373
			c-2.865,3.093-5.134,6.723-6.809,10.889c-1.677,4.167-2.514,8.594-2.514,13.281s0.837,9.115,2.514,13.281
			c1.675,4.167,3.943,7.797,6.809,10.889c2.863,3.093,6.244,5.551,10.145,7.373c3.898,1.823,8.103,2.734,12.612,2.734
			c4.447,0,8.621-0.911,12.521-2.734c3.898-1.822,7.297-4.297,10.191-7.422c2.893-3.125,5.178-6.754,6.854-10.889
			c1.675-4.134,2.513-8.545,2.513-13.232s-0.838-9.098-2.513-13.232c-1.677-4.134-3.962-7.764-6.854-10.889
			c-2.895-3.125-6.293-5.599-10.191-7.422C467.577,532.205,463.403,531.292,458.956,531.292z"/>
		<path d="M610.487,620.257c-2.742,0-4.997-0.977-6.764-2.93c-1.768-1.953-2.682-4.329-2.741-7.129
			c-4.204,3.516-8.653,6.071-13.344,7.666c-4.692,1.596-9.779,2.393-15.263,2.393c-6.521,0-12.674-1.351-18.462-4.053
			c-5.789-2.701-10.846-6.363-15.171-10.986c-4.327-4.622-7.755-10.025-10.282-16.211c-2.528-6.185-3.793-12.76-3.793-19.727
			v-48.242c0-2.799,0.929-5.191,2.788-7.178c1.857-1.985,4.127-2.979,6.809-2.979c2.619,0,4.858,0.993,6.718,2.979
			c1.857,1.986,2.787,4.379,2.787,7.178v48.242c0,4.232,0.745,8.203,2.239,11.914c1.492,3.711,3.533,6.95,6.123,9.717
			c2.589,2.768,5.621,4.948,9.094,6.543c3.473,1.596,7.188,2.393,11.15,2.393c3.898,0,7.585-0.797,11.059-2.393
			c3.473-1.595,6.519-3.792,9.14-6.592c2.618-2.799,4.675-6.038,6.169-9.717c1.492-3.678,2.239-7.633,2.239-11.865v-48.242
			c0-2.799,0.928-5.191,2.787-7.178c1.857-1.985,4.127-2.979,6.809-2.979c2.619,0,4.858,0.993,6.718,2.979
			c1.857,1.986,2.787,4.379,2.787,7.178v89.063c0,2.8-0.93,5.192-2.787,7.178C615.436,619.265,613.167,620.257,610.487,620.257z"/>
		<path d="M643.387,510.882h4.296v-36.719c0-2.799,0.929-5.191,2.787-7.178c1.858-1.985,4.128-2.979,6.81-2.979
			c2.619,0,4.857,0.993,6.717,2.979c1.858,1.986,2.788,4.379,2.788,7.178v36.719h11.424c2.619,0,4.844,0.993,6.672,2.979
			c1.828,1.986,2.742,4.379,2.742,7.178c0,2.865-0.914,5.29-2.742,7.275c-1.828,1.986-4.053,2.979-6.672,2.979h-11.424v49.121
			c0,12.956,6.092,19.434,18.278,19.434c2.619,0,4.844,0.993,6.672,2.979c1.828,1.986,2.742,4.379,2.742,7.178
			c0,2.865-0.914,5.29-2.742,7.275c-1.828,1.986-4.053,2.979-6.672,2.979c-24.92,0-37.38-13.281-37.38-39.844v-49.121h-4.296
			c-2.559,0-4.768-0.992-6.626-2.979c-1.858-1.985-2.787-4.41-2.787-7.275c0-2.799,0.929-5.191,2.787-7.178
			C638.62,511.875,640.829,510.882,643.387,510.882z"/>
	</g>
</g>
<g id="Layer_5" display="none">
</g>
</svg>
