<?xml version="1.0" encoding="utf-8"?>
<!-- Generator: Adobe Illustrator 13.0.0, SVG Export Plug-In . SVG Version: 6.00 Build 14948)  -->
<!DOCTYPE svg PUBLIC "-//W3C//DTD SVG 1.1//EN" "http://www.w3.org/Graphics/SVG/1.1/DTD/svg11.dtd">
<svg version="1.1" xmlns="http://www.w3.org/2000/svg" xmlns:xlink="http://www.w3.org/1999/xlink" x="0px" y="0px"
	 width="862.957px" height="1001.951px" viewBox="0 0 862.957 1001.951" enable-background="new 0 0 862.957 1001.951"
	 xml:space="preserve">
<g id="Layer_1" display="none">
	<g id="XMLID_1_" display="inline">
		<g>
			<path fill="#151515" d="M429.476,12.753c270.62,0,490,219.38,490,490c0,270.61-219.38,489.99-490,489.99
				c-270.62,0-490-219.38-490-489.99C-60.524,232.133,158.856,12.753,429.476,12.753z"/>
		</g>
		<g>
			<path fill="none" stroke="#000000" d="M919.476,502.753c0-270.62-219.38-490-490-490c-270.62,0-490,219.38-490,490
				c0,270.61,219.38,489.99,490,489.99C700.096,992.744,919.476,773.364,919.476,502.753z"/>
		</g>
	</g>
</g>
<g id="Layer_4">
	<polygon fill="#FFC32E" points="862.127,748.864 432.357,996.991 2.587,748.864 2.587,252.609 432.357,4.481 862.127,252.609 	"/>
	<g>
	</g>
	<g>
	</g>
</g>
<g id="Layer_4_copy">
	<polygon fill="#FFFFFF" points="840.127,736.61 432.357,972.036 24.587,736.61 24.587,265.758 432.357,30.332 840.127,265.758 	"/>
	<g>
	</g>
	<g>
	</g>
</g>
<g id="Layer_6">
	<g>
		<path d="M171.675,589.3c2.742,0,5.011,0.961,6.809,2.881c1.796,1.921,2.696,4.346,2.696,7.275c0,2.865-1.005,5.371-3.016,7.52
			c-9.445,8.854-20.564,13.281-33.359,13.281c-14.136,0-26.2-5.338-36.192-16.016c-9.993-10.677-14.988-23.567-14.988-38.672
			c0-15.104,4.995-27.994,14.988-38.672c9.992-10.677,22.056-16.016,36.192-16.016c12.855,0,23.975,4.428,33.359,13.281
			c2.193,2.084,3.29,4.655,3.29,7.715c0,2.93-0.9,5.371-2.696,7.324c-1.798,1.953-4.067,2.93-6.809,2.93
			c-2.316,0-4.387-0.781-6.215-2.344c-3.107-2.799-6.368-4.915-9.779-6.348c-3.413-1.432-7.128-2.148-11.15-2.148
			c-4.448,0-8.623,0.896-12.521,2.686c-3.9,1.791-7.312,4.232-10.236,7.324c-2.925,3.093-5.225,6.723-6.9,10.889
			c-1.676,4.167-2.513,8.627-2.513,13.379c0,4.753,0.837,9.213,2.513,13.379c1.675,4.167,3.976,7.797,6.9,10.889
			c2.924,3.093,6.336,5.534,10.236,7.324c3.898,1.791,8.073,2.686,12.521,2.686c4.021,0,7.737-0.699,11.15-2.1
			c3.412-1.399,6.641-3.499,9.688-6.299C167.349,590.082,169.359,589.366,171.675,589.3z"/>
		<path d="M298.53,565.57c0,15.234-4.997,28.125-14.989,38.672c-10.115,10.678-22.179,16.016-36.192,16.016
			c-14.136,0-26.2-5.338-36.192-16.016c-9.993-10.677-14.988-23.567-14.988-38.672c0-15.104,4.995-27.994,14.988-38.672
			c9.992-10.677,22.056-16.016,36.192-16.016c14.013,0,26.077,5.339,36.192,16.016c4.995,5.339,8.728,11.23,11.196,17.676
			S298.468,558.018,298.53,565.57z M247.349,531.292c-4.51,0-8.714,0.912-12.612,2.734c-3.9,1.823-7.281,4.281-10.145,7.373
			c-2.865,3.093-5.134,6.723-6.809,10.889c-1.677,4.167-2.514,8.594-2.514,13.281s0.837,9.115,2.514,13.281
			c1.675,4.167,3.944,7.797,6.809,10.889c2.863,3.093,6.245,5.551,10.145,7.373c3.898,1.823,8.103,2.734,12.612,2.734
			c4.447,0,8.621-0.911,12.521-2.734c3.898-1.822,7.296-4.297,10.19-7.422c2.893-3.125,5.178-6.754,6.854-10.889
			c1.675-4.134,2.513-8.545,2.513-13.232s-0.838-9.098-2.513-13.232c-1.676-4.134-3.961-7.764-6.854-10.889
			c-2.895-3.125-6.292-5.599-10.19-7.422C255.97,532.205,251.796,531.292,247.349,531.292z"/>
		<path d="M332.163,520.941c8.103-6.705,17.639-10.059,28.606-10.059c6.397,0,12.475,1.335,18.233,4.004
			c5.758,2.67,10.83,6.299,15.217,10.889c4.387,4.59,7.86,9.994,10.419,16.211c2.559,6.218,3.838,12.842,3.838,19.873v48.145
			c0,2.865-0.93,5.29-2.787,7.275c-1.859,1.986-4.099,2.979-6.718,2.979c-2.682,0-4.951-0.992-6.809-2.979
			c-1.859-1.985-2.788-4.41-2.788-7.275v-48.145c0-4.166-0.763-8.105-2.285-11.816c-1.524-3.711-3.58-6.949-6.169-9.717
			c-2.59-2.767-5.621-4.964-9.093-6.592c-3.473-1.627-7.16-2.441-11.059-2.441c-3.961,0-7.663,0.798-11.104,2.393
			c-3.443,1.596-6.475,3.793-9.094,6.592c-2.621,2.8-4.677,6.055-6.169,9.766c-1.494,3.711-2.239,7.65-2.239,11.816v48.145
			c0,2.865-0.93,5.29-2.788,7.275c-1.859,1.986-4.098,2.979-6.717,2.979c-2.682,0-4.951-0.992-6.809-2.979
			c-1.859-1.985-2.788-4.41-2.788-7.275v-88.867c0-2.799,0.928-5.208,2.788-7.227c1.857-2.018,4.127-3.027,6.809-3.027
			c2.619,0,4.858,1.01,6.717,3.027C331.233,515.928,332.163,518.272,332.163,520.941z"/>
		<path d="M431.781,510.882h4.296v-36.719c0-2.799,0.929-5.191,2.787-7.178c1.858-1.985,4.128-2.979,6.81-2.979
			c2.619,0,4.857,0.993,6.717,2.979c1.858,1.986,2.788,4.379,2.788,7.178v36.719h11.424c2.619,0,4.844,0.993,6.672,2.979
			c1.828,1.986,2.742,4.379,2.742,7.178c0,2.865-0.914,5.29-2.742,7.275c-1.828,1.986-4.053,2.979-6.672,2.979h-11.424v49.121
			c0,12.956,6.092,19.434,18.278,19.434c2.619,0,4.844,0.993,6.672,2.979c1.828,1.986,2.742,4.379,2.742,7.178
			c0,2.865-0.914,5.29-2.742,7.275c-1.828,1.986-4.053,2.979-6.672,2.979c-24.92,0-37.38-13.281-37.38-39.844v-49.121h-4.296
			c-2.559,0-4.768-0.992-6.626-2.979c-1.858-1.985-2.787-4.41-2.787-7.275c0-2.799,0.929-5.191,2.787-7.178
			C427.013,511.875,429.222,510.882,431.781,510.882z"/>
		<path d="M579.2,610.101v-1.953c-4.57,3.906-9.537,6.901-14.897,8.984c-5.362,2.084-11.09,3.125-17.182,3.125
			c-14.137,0-26.2-5.338-36.192-16.016c-9.993-10.677-14.988-23.567-14.988-38.672c0-15.104,4.995-27.994,14.988-38.672
			c9.992-10.677,22.056-16.016,36.192-16.016c14.013,0,26.077,5.339,36.191,16.016c9.992,10.678,14.988,23.568,14.988,38.672v44.531
			c0,2.8-0.93,5.192-2.787,7.178c-1.859,1.986-4.099,2.979-6.718,2.979c-2.682,0-4.95-0.992-6.809-2.979
			C580.127,615.293,579.2,612.901,579.2,610.101z M547.121,531.292c-4.51,0-8.714,0.912-12.612,2.734
			c-3.9,1.823-7.282,4.281-10.145,7.373c-2.865,3.093-5.134,6.723-6.81,10.889c-1.676,4.167-2.513,8.594-2.513,13.281
			s0.837,9.115,2.513,13.281c1.676,4.167,3.944,7.797,6.81,10.889c2.862,3.093,6.244,5.551,10.145,7.373
			c3.898,1.823,8.103,2.734,12.612,2.734c4.446,0,8.621-0.911,12.521-2.734c3.898-1.822,7.296-4.297,10.19-7.422
			c2.894-3.125,5.178-6.754,6.854-10.889c1.675-4.134,2.514-8.545,2.514-13.232s-0.839-9.098-2.514-13.232
			c-1.677-4.134-3.961-7.764-6.854-10.889c-2.895-3.125-6.292-5.599-10.19-7.422C555.742,532.205,551.567,531.292,547.121,531.292z"
			/>
		<path d="M690.791,589.3c2.742,0,5.011,0.961,6.809,2.881c1.797,1.921,2.696,4.346,2.696,7.275c0,2.865-1.005,5.371-3.016,7.52
			c-9.445,8.854-20.563,13.281-33.358,13.281c-14.137,0-26.2-5.338-36.192-16.016c-9.993-10.677-14.988-23.567-14.988-38.672
			c0-15.104,4.995-27.994,14.988-38.672c9.992-10.677,22.056-16.016,36.192-16.016c12.854,0,23.975,4.428,33.358,13.281
			c2.193,2.084,3.29,4.655,3.29,7.715c0,2.93-0.899,5.371-2.696,7.324c-1.798,1.953-4.067,2.93-6.809,2.93
			c-2.316,0-4.387-0.781-6.215-2.344c-3.107-2.799-6.367-4.915-9.779-6.348c-3.413-1.432-7.129-2.148-11.149-2.148
			c-4.449,0-8.623,0.896-12.521,2.686c-3.899,1.791-7.312,4.232-10.236,7.324c-2.924,3.093-5.225,6.723-6.899,10.889
			c-1.677,4.167-2.514,8.627-2.514,13.379c0,4.753,0.837,9.213,2.514,13.379c1.675,4.167,3.976,7.797,6.899,10.889
			c2.925,3.093,6.337,5.534,10.236,7.324c3.898,1.791,8.072,2.686,12.521,2.686c4.021,0,7.736-0.699,11.149-2.1
			c3.412-1.399,6.641-3.499,9.688-6.299C686.463,590.082,688.474,589.366,690.791,589.3z"/>
		<path d="M724.24,510.882h4.296v-36.719c0-2.799,0.929-5.191,2.787-7.178c1.858-1.985,4.128-2.979,6.81-2.979
			c2.619,0,4.857,0.993,6.717,2.979c1.858,1.986,2.788,4.379,2.788,7.178v36.719h11.424c2.619,0,4.844,0.993,6.672,2.979
			c1.828,1.986,2.742,4.379,2.742,7.178c0,2.865-0.914,5.29-2.742,7.275c-1.828,1.986-4.053,2.979-6.672,2.979h-11.424v49.121
			c0,12.956,6.092,19.434,18.278,19.434c2.619,0,4.844,0.993,6.672,2.979c1.828,1.986,2.742,4.379,2.742,7.178
			c0,2.865-0.914,5.29-2.742,7.275c-1.828,1.986-4.053,2.979-6.672,2.979c-24.92,0-37.38-13.281-37.38-39.844v-49.121h-4.296
			c-2.559,0-4.768-0.992-6.626-2.979c-1.858-1.985-2.787-4.41-2.787-7.275c0-2.799,0.929-5.191,2.787-7.178
			C719.472,511.875,721.681,510.882,724.24,510.882z"/>
	</g>
</g>
<g id="Layer_5" display="none">
</g>
</svg>
