<?xml version="1.0" encoding="utf-8"?>
<!-- Generator: Adobe Illustrator 13.0.0, SVG Export Plug-In . SVG Version: 6.00 Build 14948)  -->
<!DOCTYPE svg PUBLIC "-//W3C//DTD SVG 1.1//EN" "http://www.w3.org/Graphics/SVG/1.1/DTD/svg11.dtd">
<svg version="1.1" xmlns="http://www.w3.org/2000/svg" xmlns:xlink="http://www.w3.org/1999/xlink" x="0px" y="0px"
	 width="862.957px" height="1001.951px" viewBox="0 0 862.957 1001.951" enable-background="new 0 0 862.957 1001.951"
	 xml:space="preserve">
<g id="Layer_1" display="none">
	<g id="XMLID_1_" display="inline">
		<g>
			<path fill="#151515" d="M429.476,12.753c270.62,0,490,219.38,490,490c0,270.61-219.38,489.99-490,489.99
				c-270.62,0-490-219.38-490-489.99C-60.524,232.133,158.856,12.753,429.476,12.753z"/>
		</g>
		<g>
			<path fill="none" stroke="#000000" d="M919.476,502.753c0-270.62-219.38-490-490-490c-270.62,0-490,219.38-490,490
				c0,270.61,219.38,489.99,490,489.99C700.096,992.744,919.476,773.364,919.476,502.753z"/>
		</g>
	</g>
</g>
<g id="Layer_4">
	<polygon fill="#BFBFBF" points="862.127,748.864 432.357,996.991 2.587,748.864 2.587,252.609 432.357,4.481 862.127,252.609 	"/>
	<g>
	</g>
	<g>
	</g>
</g>
<g id="Layer_6">
	<g>
		<path fill="#FFFFFF" d="M280.246,510.882c4.508,0,7.555,2.507,9.14,7.52l18.553,59.473l19.193-61.328
			c0.487-1.692,1.462-3.06,2.924-4.102c1.462-1.041,3.35-1.563,5.667-1.563c1.339,0,2.589,0.261,3.747,0.781
			c1.157,0.521,2.162,1.254,3.016,2.197c0.853,0.944,1.538,2.035,2.056,3.271c0.517,1.237,0.777,2.539,0.777,3.906
			c0,1.237-0.244,2.539-0.731,3.906l-27.692,88.77c-0.548,1.889-1.554,3.451-3.016,4.688c-1.462,1.237-3.443,1.855-5.941,1.855
			c-2.133,0-4.021-0.65-5.667-1.953c-1.645-1.302-2.711-2.832-3.199-4.59l-18.827-60.352l-18.827,60.352
			c-0.548,1.889-1.645,3.451-3.291,4.688c-1.645,1.237-3.534,1.855-5.666,1.855c-2.134,0-4.007-0.618-5.621-1.855
			c-1.615-1.236-2.728-2.799-3.335-4.688l-27.692-88.77c-0.427-1.432-0.64-2.734-0.64-3.906c0-1.367,0.243-2.669,0.731-3.906
			c0.487-1.236,1.157-2.327,2.011-3.271c0.853-0.943,1.858-1.676,3.016-2.197c1.156-0.521,2.406-0.781,3.747-0.781
			c2.193,0,4.036,0.554,5.529,1.66c1.492,1.107,2.513,2.441,3.062,4.004l19.193,61.23l18.553-59.375
			C272.599,513.389,275.676,510.882,280.246,510.882z"/>
		<path fill="#FFFFFF" d="M463.398,565.57c0,15.234-4.996,28.125-14.988,38.672c-10.115,10.678-22.179,16.016-36.192,16.016
			c-14.136,0-26.2-5.338-36.192-16.016c-9.993-10.677-14.988-23.567-14.988-38.672c0-15.104,4.995-27.994,14.988-38.672
			c9.992-10.677,22.056-16.016,36.192-16.016c14.013,0,26.077,5.339,36.192,16.016c4.995,5.339,8.729,11.23,11.195,17.676
			C462.074,551.019,463.337,558.018,463.398,565.57z M412.218,531.292c-4.51,0-8.714,0.912-12.612,2.734
			c-3.9,1.823-7.281,4.281-10.145,7.373c-2.865,3.093-5.134,6.723-6.809,10.889c-1.677,4.167-2.514,8.594-2.514,13.281
			s0.837,9.115,2.514,13.281c1.675,4.167,3.944,7.797,6.809,10.889c2.863,3.093,6.245,5.551,10.145,7.373
			c3.898,1.823,8.103,2.734,12.612,2.734c4.447,0,8.621-0.911,12.521-2.734c3.898-1.822,7.296-4.297,10.19-7.422
			c2.893-3.125,5.178-6.754,6.854-10.889c1.675-4.134,2.513-8.545,2.513-13.232s-0.838-9.098-2.513-13.232
			c-1.677-4.134-3.962-7.764-6.854-10.889c-2.895-3.125-6.292-5.599-10.19-7.422C420.839,532.205,416.665,531.292,412.218,531.292z"
			/>
		<path fill="#FFFFFF" d="M496.757,521.039v1.953c4.569-3.906,9.535-6.9,14.896-8.984c5.361-2.083,11.089-3.125,17.183-3.125
			c2.681,0,5.56,0.195,8.637,0.586c3.076,0.391,5.909,1.091,8.499,2.1c2.59,1.01,4.737,2.393,6.443,4.15
			c1.705,1.758,2.56,4.037,2.56,6.836c0,1.433-0.26,2.768-0.777,4.004c-0.519,1.237-1.204,2.328-2.056,3.271
			c-0.854,0.944-1.859,1.677-3.017,2.197c-1.158,0.521-2.407,0.781-3.747,0.781c-1.158,0-2.499-0.357-4.021-1.074
			c-3.838-1.627-8.013-2.441-12.521-2.441c-4.448,0-8.622,0.896-12.521,2.686c-3.9,1.791-7.298,4.232-10.191,7.324
			c-2.895,3.093-5.18,6.723-6.854,10.889c-1.678,4.167-2.514,8.627-2.514,13.379v44.531c0,2.8-0.93,5.192-2.787,7.178
			c-1.859,1.986-4.1,2.979-6.719,2.979c-2.682,0-4.95-0.992-6.809-2.979c-1.859-1.985-2.787-4.378-2.787-7.178v-89.063
			c0-2.799,0.928-5.191,2.787-7.178c1.858-1.985,4.127-2.979,6.809-2.979c2.619,0,4.859,0.993,6.719,2.979
			C495.828,515.847,496.757,518.24,496.757,521.039z"/>
		<path fill="#FFFFFF" d="M565.577,610.003V474.261c0-2.864,0.928-5.289,2.787-7.275c1.858-1.985,4.127-2.979,6.809-2.979
			c2.619,0,4.858,0.993,6.718,2.979c1.858,1.986,2.787,4.411,2.787,7.275v76.172l54.653-37.988c1.522-1.041,3.229-1.563,5.118-1.563
			c1.34,0,2.59,0.261,3.747,0.781c1.157,0.521,2.162,1.254,3.017,2.197c0.853,0.944,1.538,2.035,2.057,3.271
			c0.517,1.237,0.776,2.539,0.776,3.906c0,3.646-1.22,6.348-3.655,8.105l-38.294,26.563l39.299,47.266
			c1.767,2.084,2.65,4.46,2.65,7.129c0,1.367-0.26,2.67-0.776,3.906c-0.519,1.237-1.204,2.328-2.057,3.271
			c-0.854,0.944-1.859,1.677-3.017,2.197c-1.157,0.521-2.407,0.781-3.747,0.781c-2.559,0-4.692-0.879-6.397-2.637l-42.224-50.684
			l-11.15,7.813v35.254c0,2.8-0.929,5.209-2.787,7.227c-1.859,2.019-4.099,3.027-6.718,3.027c-2.682,0-4.95-1.009-6.809-3.027
			C566.504,615.212,565.577,612.803,565.577,610.003z"/>
	</g>
</g>
<g id="Layer_5" display="none">
</g>
</svg>
