<?xml version="1.0" encoding="utf-8"?>
<!-- Generator: Adobe Illustrator 13.0.0, SVG Export Plug-In . SVG Version: 6.00 Build 14948)  -->
<!DOCTYPE svg PUBLIC "-//W3C//DTD SVG 1.1//EN" "http://www.w3.org/Graphics/SVG/1.1/DTD/svg11.dtd">
<svg version="1.1" xmlns="http://www.w3.org/2000/svg" xmlns:xlink="http://www.w3.org/1999/xlink" x="0px" y="0px"
	 width="862.957px" height="1001.951px" viewBox="0 0 862.957 1001.951" enable-background="new 0 0 862.957 1001.951"
	 xml:space="preserve">
<g id="Layer_1" display="none">
	<g id="XMLID_1_" display="inline">
		<g>
			<path fill="#151515" d="M429.476,12.753c270.62,0,490,219.38,490,490c0,270.61-219.38,489.99-490,489.99
				c-270.62,0-490-219.38-490-489.99C-60.524,232.133,158.856,12.753,429.476,12.753z"/>
		</g>
		<g>
			<path fill="none" stroke="#000000" d="M919.476,502.753c0-270.62-219.38-490-490-490c-270.62,0-490,219.38-490,490
				c0,270.61,219.38,489.99,490,489.99C700.096,992.744,919.476,773.364,919.476,502.753z"/>
		</g>
	</g>
</g>
<g id="Layer_4">
	<polygon fill="#151515" points="862.127,748.864 432.357,996.991 2.587,748.864 2.587,252.609 432.357,4.481 862.127,252.609 	"/>
	<g>
	</g>
	<g>
	</g>
</g>
<g id="Layer_6">
	<g>
		<path fill="#FFC32E" d="M383.067,610.101v-1.953c-4.569,3.906-9.536,6.901-14.897,8.984c-5.362,2.084-11.09,3.125-17.182,3.125
			c-14.136,0-26.2-5.338-36.192-16.016c-9.993-10.677-14.988-23.567-14.988-38.672c0-15.104,4.995-27.994,14.988-38.672
			c9.992-10.677,22.056-16.016,36.192-16.016c14.013,0,26.077,5.339,36.192,16.016c9.992,10.678,14.989,23.568,14.989,38.672v44.531
			c0,2.8-0.93,5.192-2.788,7.178c-1.859,1.986-4.099,2.979-6.717,2.979c-2.682,0-4.951-0.992-6.809-2.979
			C383.996,615.293,383.067,612.901,383.067,610.101z M350.988,531.292c-4.51,0-8.714,0.912-12.612,2.734
			c-3.9,1.823-7.281,4.281-10.145,7.373c-2.865,3.093-5.134,6.723-6.809,10.889c-1.677,4.167-2.514,8.594-2.514,13.281
			s0.837,9.115,2.514,13.281c1.675,4.167,3.944,7.797,6.809,10.889c2.863,3.093,6.245,5.551,10.145,7.373
			c3.898,1.823,8.103,2.734,12.612,2.734c4.447,0,8.621-0.911,12.521-2.734c3.898-1.822,7.296-4.297,10.19-7.422
			c2.893-3.125,5.178-6.754,6.854-10.889c1.675-4.134,2.513-8.545,2.513-13.232s-0.838-9.098-2.513-13.232
			c-1.676-4.134-3.961-7.764-6.854-10.889c-2.895-3.125-6.292-5.599-10.19-7.422C359.609,532.205,355.436,531.292,350.988,531.292z"
			/>
		<path fill="#FFC32E" d="M435.528,521.039v1.953c4.569-3.906,9.534-6.9,14.897-8.984c5.36-2.083,11.088-3.125,17.182-3.125
			c2.68,0,5.559,0.195,8.637,0.586c3.076,0.391,5.909,1.091,8.5,2.1c2.588,1.01,4.736,2.393,6.443,4.15
			c1.704,1.758,2.559,4.037,2.559,6.836c0,1.433-0.26,2.768-0.777,4.004c-0.518,1.237-1.203,2.328-2.057,3.271
			c-0.854,0.944-1.859,1.677-3.016,2.197c-1.158,0.521-2.408,0.781-3.747,0.781c-1.158,0-2.499-0.357-4.021-1.074
			c-3.839-1.627-8.013-2.441-12.521-2.441c-4.448,0-8.623,0.896-12.521,2.686c-3.899,1.791-7.297,4.232-10.189,7.324
			c-2.895,3.093-5.18,6.723-6.855,10.889c-1.676,4.167-2.513,8.627-2.513,13.379v44.531c0,2.8-0.93,5.192-2.788,7.178
			c-1.859,1.986-4.098,2.979-6.717,2.979c-2.682,0-4.951-0.992-6.809-2.979c-1.859-1.985-2.788-4.378-2.788-7.178v-89.063
			c0-2.799,0.928-5.191,2.788-7.178c1.858-1.985,4.127-2.979,6.809-2.979c2.619,0,4.858,0.993,6.717,2.979
			C434.598,515.847,435.528,518.24,435.528,521.039z"/>
		<path fill="#FFC32E" d="M513.486,510.882h4.296v-36.719c0-2.799,0.929-5.191,2.788-7.178c1.857-1.985,4.127-2.979,6.809-2.979
			c2.619,0,4.857,0.993,6.717,2.979c1.858,1.986,2.788,4.379,2.788,7.178v36.719h11.424c2.619,0,4.844,0.993,6.672,2.979
			c1.827,1.986,2.741,4.379,2.741,7.178c0,2.865-0.914,5.29-2.741,7.275c-1.828,1.986-4.053,2.979-6.672,2.979h-11.424v49.121
			c0,12.956,6.092,19.434,18.278,19.434c2.619,0,4.844,0.993,6.672,2.979c1.828,1.986,2.742,4.379,2.742,7.178
			c0,2.865-0.914,5.29-2.742,7.275c-1.828,1.986-4.053,2.979-6.672,2.979c-24.92,0-37.38-13.281-37.38-39.844v-49.121h-4.296
			c-2.559,0-4.768-0.992-6.625-2.979c-1.859-1.985-2.788-4.41-2.788-7.275c0-2.799,0.929-5.191,2.788-7.178
			C508.718,511.875,510.927,510.882,513.486,510.882z"/>
	</g>
</g>
<g id="Layer_5" display="none">
</g>
</svg>
