<?xml version="1.0" encoding="utf-8"?>
<!-- Generator: Adobe Illustrator 13.0.0, SVG Export Plug-In . SVG Version: 6.00 Build 14948)  -->
<!DOCTYPE svg PUBLIC "-//W3C//DTD SVG 1.1//EN" "http://www.w3.org/Graphics/SVG/1.1/DTD/svg11.dtd">
<svg version="1.1" xmlns="http://www.w3.org/2000/svg" xmlns:xlink="http://www.w3.org/1999/xlink" x="0px" y="0px"
	 width="862.957px" height="1001.951px" viewBox="0 0 862.957 1001.951" enable-background="new 0 0 862.957 1001.951"
	 xml:space="preserve">
<g id="Layer_1" display="none">
	<g id="XMLID_1_" display="inline">
		<g>
			<path fill="#151515" d="M429.476,12.753c270.62,0,490,219.38,490,490c0,270.61-219.38,489.99-490,489.99
				c-270.62,0-490-219.38-490-489.99C-60.524,232.133,158.856,12.753,429.476,12.753z"/>
		</g>
		<g>
			<path fill="none" stroke="#000000" d="M919.476,502.753c0-270.62-219.38-490-490-490c-270.62,0-490,219.38-490,490
				c0,270.61,219.38,489.99,490,489.99C700.096,992.744,919.476,773.364,919.476,502.753z"/>
		</g>
	</g>
</g>
<g id="Layer_4">
	<polygon fill="#FFC32E" points="862.127,748.864 432.357,996.991 2.587,748.864 2.587,252.609 432.357,4.481 862.127,252.609 	"/>
	<g>
	</g>
	<g>
	</g>
</g>
<g id="Layer_6">
	<g>
		<path fill="#151515" d="M262.882,567.965l-80.152-102.034c-3.958-4.758-5.937-10.837-5.937-18.239
			c0-3.701,0.657-7.224,1.979-10.574c1.318-3.345,3.131-6.298,5.442-8.855c2.308-2.553,5.029-4.535,8.164-5.948
			c3.131-1.408,6.513-2.115,10.143-2.115c7.75,0,14.182,2.999,19.296,8.987l74.709,95.425l74.71-95.425
			c4.948-5.989,11.295-8.987,19.049-8.987c3.625,0,7.008,0.707,10.143,2.115c3.131,1.413,5.852,3.395,8.164,5.948
			c2.308,2.557,4.163,5.51,5.566,8.855c1.399,3.35,2.103,6.873,2.103,10.574c0,6.699-2.064,12.779-6.185,18.239l-80.152,102.034
			l80.895,103.619c3.625,4.407,5.442,10.136,5.442,17.182c0,3.701-0.704,7.229-2.103,10.574c-1.403,3.35-3.258,6.303-5.566,8.854
			c-2.312,2.557-5.033,4.539-8.164,5.948c-3.135,1.412-6.517,2.114-10.143,2.114c-7.093,0-13.278-2.816-18.554-8.459l-75.205-96.746
			l-75.699,96.746c-4.948,5.643-11.051,8.459-18.306,8.459c-3.63,0-7.012-0.702-10.143-2.114c-3.135-1.409-5.856-3.392-8.164-5.948
			c-2.312-2.552-4.124-5.505-5.442-8.854c-1.322-3.346-1.979-6.873-1.979-10.574c0-6.872,1.732-12.597,5.195-17.182L262.882,567.965
			z"/>
		<path fill="#FFFFFF" d="M505.812,688.502c0,7.756-2.516,14.319-7.545,19.692c-5.032,5.378-11.175,8.063-18.43,8.063
			c-7.094,0-13.154-2.685-18.184-8.063c-5.032-5.373-7.545-11.937-7.545-19.692V321.076c0-7.752,2.513-14.315,7.545-19.693
			c5.029-5.373,11.09-8.062,18.184-8.062c7.089,0,13.149,2.689,18.183,8.062c5.028,5.378,7.626,11.941,7.792,19.693v126.881
			c21.933-18.148,47.745-27.227,77.432-27.227c17.316,0,33.768,3.614,49.353,10.838c15.585,7.228,29.315,17.049,41.189,29.473
			s21.275,27.053,28.202,43.88c6.927,16.831,10.39,34.76,10.39,53.792v129.789c-0.166,7.756-2.764,14.319-7.792,19.692
			c-5.033,5.378-11.094,8.063-18.184,8.063c-7.093,0-13.153-2.685-18.183-8.063c-5.032-5.373-7.545-11.937-7.545-19.692V558.713
			c0-11.275-2.064-21.939-6.185-31.984c-4.124-10.045-9.69-18.81-16.698-26.302c-7.012-7.488-15.214-13.436-24.614-17.842
			c-9.401-4.403-19.382-6.608-29.934-6.608c-10.723,0-20.742,2.16-30.058,6.476c-9.319,4.32-17.525,10.268-24.614,17.843
			c-7.093,7.579-12.659,16.389-16.698,26.434c-4.043,10.045-6.062,20.709-6.062,31.984V688.502z"/>
	</g>
</g>
<g id="Layer_5" display="none">
</g>
</svg>
